<svg width="135" height="52" viewBox="0 0 135 52" fill="none" xmlns="http://www.w3.org/2000/svg">
<g clip-path="url(#clip0_217_3604)">
<path d="M26 35.9334C25.8265 36.0092 25.6964 35.9876 25.5771 35.9876C23.452 35.9876 21.3161 35.9876 19.191 35.9984C18.8982 35.9984 18.7356 35.9009 18.5947 35.6517C15.8407 31.0801 13.0759 26.5085 10.3328 21.926C10.1051 21.5577 9.88824 21.3952 9.4437 21.4169C8.48957 21.4494 7.54629 21.4277 6.59216 21.4277C6.09341 21.4277 6.15847 21.3844 6.15847 21.8502C6.15847 24.0168 6.15847 26.1835 6.15847 28.361C6.15847 30.7009 6.15847 33.0409 6.15847 35.3809C6.15847 35.4676 6.15847 35.5542 6.15847 35.6409C6.15847 36.0092 6.18015 35.9984 5.82235 35.9984C5.44287 35.9984 5.05254 35.9984 4.67306 35.9984C3.26355 35.9984 1.86489 35.9984 0.455379 35.9984C-0.0542119 35.9984 0.0216847 36.0526 0.0108424 35.5326C0.0108424 35.5001 0.0108424 35.4784 0.0108424 35.4459C0 24.136 0 12.837 0 1.5379C0 1.00707 0 1.00707 0.542118 1.00707C4.73811 1.00707 8.94495 0.985408 13.141 1.01791C15.407 1.03957 17.5538 1.59207 19.4837 2.81622C21.9666 4.39787 23.3653 6.68368 23.7665 9.58699C24.0267 11.5045 23.8749 13.3786 23.1593 15.1878C22.1726 17.6794 20.362 19.3694 17.9116 20.3985C17.4345 20.6044 16.9358 20.756 16.4262 20.951C19.6138 25.9452 22.8015 30.9176 26 35.9334ZM6.14762 11.2228C6.14762 12.5445 6.14762 13.8553 6.14762 15.1769C6.14762 15.5453 6.09341 15.5669 6.50542 15.5669C8.47873 15.5669 10.452 15.5669 12.4254 15.5669C13 15.5669 13.5638 15.5128 14.1168 15.3828C15.754 15.0036 17.2827 14.0286 17.5213 11.7536C17.7273 9.69532 16.8816 7.85367 14.5071 7.14951C13.8782 6.96535 13.2385 6.86785 12.5771 6.86785C10.5496 6.86785 8.5221 6.86785 6.48374 6.86785C6.15847 6.86785 6.14762 6.87868 6.14762 7.22535C6.14762 8.55783 6.14762 9.89032 6.14762 11.2228Z" fill="#282B4C"/>
<path d="M120.127 12.9844C120.127 12.7382 120.127 12.5883 120.127 12.4385C120.127 8.44578 120.127 4.4531 120.127 0.460424C120.127 -0.0212657 120.04 0.000142663 120.616 0.000142663C122.254 0.000142663 123.882 0.000142663 125.52 0.000142663C125.618 0.000142663 125.715 0.000142663 125.813 0.000142663C125.932 0.000142663 125.998 0.0429595 125.998 0.17141C125.998 0.267748 125.998 0.364086 125.998 0.460424C125.998 11.9889 125.998 23.528 125.998 35.0565C125.998 35.5917 126.063 35.5168 125.52 35.5168C123.882 35.5168 122.254 35.5168 120.616 35.5168C120.051 35.5168 120.127 35.581 120.127 35.0137C120.127 34.243 120.127 33.4723 120.127 32.6801C119.943 32.7015 119.856 32.8407 119.758 32.937C118.489 34.1145 117.046 35.0137 115.375 35.5061C110.47 36.9511 104.795 35.2384 101.876 30.1968C100.932 28.5697 100.39 26.8142 100.151 24.9624C99.8254 22.4469 100.01 19.9849 100.867 17.5872C101.92 14.6328 103.764 12.3207 106.618 10.8435C108.756 9.74099 111.045 9.39845 113.432 9.66606C115.895 9.93366 117.979 10.9827 119.769 12.6418C119.856 12.7382 119.954 12.8131 120.127 12.9844ZM120.225 22.6931C120.247 21.5477 120.03 20.3382 119.509 19.1928C118.391 16.7308 116.492 15.2323 113.747 15.0182C110.904 14.7934 108.691 15.9387 107.215 18.3579C105.652 20.9269 105.674 24.6092 107.204 27.1996C109.852 31.6954 116.34 31.7382 119.042 27.2852C119.889 25.9044 120.236 24.3951 120.225 22.6931Z" fill="#282B4C"/>
<path d="M63.9286 13.4024C64.265 13.1074 64.5688 12.8234 64.8835 12.5612C67.0644 10.7369 69.5817 9.92848 72.4029 10.0049C77.1662 10.136 81.2785 13.0637 83.058 17.914C83.8718 20.1316 84.1213 22.4257 83.9477 24.7853C83.785 26.992 83.2425 29.0894 82.1357 31.023C80.3345 34.1582 77.687 36.1464 74.1281 36.7691C70.3847 37.4245 67.0644 36.4851 64.265 33.8524C64.1673 33.754 64.0588 33.6557 63.9612 33.5683C63.9395 33.5792 63.9178 33.5792 63.9069 33.5902C63.8961 33.6011 63.8852 33.612 63.8852 33.6229C63.8852 33.6557 63.8744 33.6776 63.8744 33.7103C63.8744 37.785 63.8635 41.8598 63.8635 45.9345C63.8635 45.9454 63.8527 45.9672 63.8418 46C61.9105 46 59.9682 46 58.0368 46C57.9826 45.8361 58.0043 45.6832 58.0043 45.5193C58.0043 34.0271 58.0043 22.5349 58.0043 11.0427C58.0043 10.9881 58.0043 10.9335 58.0043 10.868C58.0043 10.4965 58.0043 10.4965 58.3732 10.4965C60.0767 10.4965 61.7802 10.4965 63.4838 10.4965C63.8635 10.4965 63.8744 10.4965 63.8744 10.9007C63.8744 11.5999 63.8744 12.299 63.8744 12.9982C63.8744 13.1074 63.8418 13.2385 63.9286 13.4024ZM70.8187 31.449C71.1767 31.4272 71.5348 31.4163 71.882 31.3616C74.2149 30.9793 75.9509 29.7121 76.9926 27.5928C78.2838 24.9383 78.3055 22.1963 77.0685 19.5199C75.9618 17.1384 74.0521 15.7401 71.4263 15.5435C68.4533 15.325 66.153 16.5813 64.7641 19.2468C63.3536 21.9778 63.3536 24.8181 64.699 27.5819C65.9251 30.0835 68.041 31.3398 70.8187 31.449Z" fill="#282B4C"/>
<path d="M53.4126 28.2681C53.3018 28.5101 53.2131 28.7101 53.1244 28.91C52.3376 30.5518 51.3069 32.0357 49.8661 33.2459C48.3145 34.5509 46.508 35.3297 44.4909 35.698C42.1856 36.119 39.8693 36.1295 37.5973 35.5402C33.2085 34.4036 30.2494 31.7831 28.8307 27.6787C27.5784 24.0479 27.7225 20.4171 29.396 16.9231C31.1471 13.2712 34.1505 10.998 38.3066 10.2508C41.9529 9.59835 45.3775 10.1982 48.4253 12.2925C50.5532 13.7659 51.9607 15.7549 52.8585 18.0807C53.4459 19.5962 53.7673 21.1748 53.9113 22.785C53.9667 23.3638 53.9889 23.9427 54 24.5215C54 24.8372 54 24.8372 53.6786 24.8477C53.5899 24.8477 53.5013 24.8477 53.4126 24.8477C47.2948 24.8477 41.166 24.8477 35.0482 24.8477C34.8931 24.8477 34.7379 24.8477 34.5717 24.8477C34.5384 25.2792 34.6493 25.6476 34.749 26.0159C35.2256 27.805 36.223 29.2573 37.952 30.1413C39.9801 31.1727 42.0748 31.2358 44.1916 30.3834C45.4773 29.8572 46.4082 28.9416 47.0178 27.7524C47.1286 27.5419 47.2284 27.4682 47.4722 27.4998C49.4338 27.7524 51.3844 28.0049 53.4126 28.2681ZM34.5163 20.4381C35.2921 20.5223 47.0289 20.4908 47.3392 20.4066C46.7296 17.3335 44.0032 15.0709 40.9111 15.0814C37.4976 15.1024 35.0372 17.6808 34.5163 20.4381Z" fill="#282B4C"/>
<path d="M89.0012 23.0163C89.0012 18.8492 89.0012 14.6822 89.0012 10.526C89.0012 10.4276 89.0012 10.3291 89.0012 10.2307C88.9901 10.0666 89.0566 9.99009 89.234 10.001C89.478 10.012 89.7219 10.001 89.977 10.001C91.5293 10.001 93.0817 10.001 94.6341 10.001C94.9889 10.001 95 10.001 95 10.351C95 11.4119 95 12.4728 95 13.5228C95 20.807 95 28.0912 95 35.3754C95 35.4738 95 35.5723 95 35.6707C94.9889 35.9879 94.9889 35.9988 94.6674 35.9988C92.9154 35.9988 91.1523 35.9988 89.4004 35.9988C88.9901 35.9988 89.0123 36.0426 89.0123 35.5942C89.0123 32.127 89.0123 28.6709 89.0123 25.2038C89.0012 24.471 89.0012 23.7491 89.0012 23.0163Z" fill="#282B4C"/>
<path d="M91.5097 7C89.5264 7 87.9903 5.47912 88 3.50002C88 1.55017 89.5459 0.00979469 91.4903 4.54505e-05C93.4541 -0.00970379 95.0097 1.55017 95 3.51952C94.9902 5.47912 93.4736 7 91.5097 7Z" fill="#282B4C"/>
<path d="M93.8431 48.0023C93.6986 48.0132 93.6504 48.1229 93.583 48.1996C92.4655 49.4168 90.0957 49.2084 89.3058 47.0922C88.853 45.8641 88.8915 44.625 89.4984 43.4518C90.3751 41.7522 92.533 41.5658 93.6023 42.7829C93.6601 42.8487 93.7082 42.9474 93.8431 42.9474C93.9009 42.761 93.872 42.5636 93.872 42.3772C93.872 42.1908 93.9394 42.114 94.0936 42.125C94.3344 42.1359 94.5752 42.125 94.8161 42.125C94.9413 42.125 95.0087 42.1798 94.9991 42.3333C94.9991 42.4101 94.9991 42.4759 94.9991 42.5526C94.9991 44.4715 94.9991 46.4014 94.9991 48.3202C94.9991 48.7479 94.9509 49.1755 94.8546 49.5922C94.5367 50.9299 93.7853 51.7414 92.5715 51.9497C91.743 52.0922 90.9627 51.9387 90.2595 51.4014C89.7489 51.0067 89.4214 50.4584 89.2094 49.8115C89.1613 49.647 89.1902 49.5593 89.3443 49.5483C89.4792 49.5264 89.6237 49.5154 89.7585 49.4935C89.9223 49.4716 90.0861 49.4058 90.2402 49.4387C90.4232 49.4716 90.4136 49.7347 90.4907 49.8773C90.6256 50.1076 90.7701 50.3159 90.9724 50.4694C92.0995 51.3576 93.5541 50.6777 93.8046 49.1426C93.8624 48.7589 93.872 48.386 93.8431 48.0023ZM92.0128 43.1996C91.271 43.1996 90.6834 43.6382 90.3751 44.4167C90.1728 44.932 90.1343 45.4584 90.2306 46.0066C90.3751 46.84 90.9435 47.5417 91.6274 47.6843C92.4174 47.8597 93.1591 47.5198 93.5445 46.7522C93.9683 45.9079 93.978 45.0307 93.5445 44.1755C93.2073 43.5285 92.6871 43.1996 92.0128 43.1996Z" fill="#F48C06"/>
<path d="M86.6003 47.998C86.5457 48.0819 86.5129 48.1762 86.4363 48.2391C85.5615 49.0465 84.2056 49.2353 83.134 48.69C82.292 48.2706 81.9421 47.5785 82.0077 46.6873C82.0624 45.9218 82.5873 45.3241 83.4183 45.041C83.9323 44.8732 84.4571 44.8628 84.982 44.8418C85.4631 44.8208 85.9552 44.8208 86.4363 44.8208C86.6331 44.8208 86.7097 44.7579 86.7097 44.5587C86.7425 43.6464 86.0645 42.9963 85.0476 43.0068C84.3806 43.0173 83.6589 43.2794 83.4621 44.0239C83.4293 44.1497 83.3527 44.2022 83.2215 44.2022C82.9263 44.2022 82.6201 44.2022 82.3248 44.2022C82.1499 44.2022 82.0952 44.1183 82.128 43.9715C82.2264 43.4052 82.4889 42.9334 82.97 42.5874C83.9432 41.8743 85.7584 41.8009 86.7972 42.4196C87.6282 42.9124 87.9672 43.6674 87.9781 44.5796C87.9891 45.4814 87.9781 46.3937 87.9781 47.2954C87.9781 47.7253 87.9891 48.1448 88 48.5747C88 48.8578 88 48.8578 87.6938 48.8683C87.497 48.8683 87.2892 48.8578 87.0924 48.8683C86.8409 48.8893 86.7644 48.7739 86.7534 48.5642C86.7425 48.4069 86.7316 48.2391 86.7206 48.0819C86.6769 48.0399 86.6441 48.0189 86.6003 47.998ZM84.654 47.9141C85.7802 47.8617 86.6113 47.2745 86.7097 46.142C86.7425 45.8065 86.7206 45.775 86.3817 45.796C85.7693 45.8169 85.157 45.8589 84.5446 45.8903C84.3259 45.9008 84.1291 45.9638 83.9213 46.0476C83.5386 46.2049 83.3308 46.4775 83.3199 46.8655C83.309 47.2535 83.4949 47.5471 83.8557 47.7358C84.1181 47.8721 84.4025 47.8826 84.654 47.9141Z" fill="#F48C06"/>
<path d="M101.722 48.0482C101.537 48.0901 101.483 48.2156 101.385 48.2889C100.503 49.0631 99.12 49.2305 98.0749 48.6655C97.2801 48.2365 96.9426 47.5669 97.0079 46.709C97.0732 45.8615 97.5849 45.3383 98.3906 45.0558C98.9241 44.8675 99.4793 44.8675 100.035 44.8466C100.492 44.8256 100.949 44.8256 101.406 44.8256C101.613 44.8256 101.668 44.7629 101.679 44.5641C101.744 43.4968 100.851 42.9319 99.8277 43.026C99.1745 43.0888 98.6519 43.3608 98.4668 44.0305C98.4341 44.156 98.347 44.2083 98.2164 44.2083C97.9333 44.2083 97.6503 44.2188 97.3672 44.2083C97.1277 44.1979 97.095 44.1665 97.1386 43.9258C97.2474 43.3504 97.5305 42.8795 98.0422 42.5343C98.3471 42.325 98.6846 42.189 99.0547 42.1053C99.6753 41.9797 100.296 41.9588 100.916 42.0844C102.136 42.3355 102.92 43.2457 102.941 44.449C102.952 45.5999 102.952 46.7508 102.952 47.9017C102.952 48.1528 102.952 48.3935 102.996 48.6341C103.018 48.7702 102.952 48.8329 102.811 48.8329C102.528 48.8329 102.245 48.8329 101.962 48.8329C101.809 48.8329 101.766 48.7597 101.755 48.6237C101.744 48.4667 101.733 48.2679 101.722 48.0482ZM100.873 45.8091C100.307 45.8615 99.6862 45.8301 99.0983 45.987C98.5757 46.1335 98.3144 46.4788 98.3362 46.9391C98.3579 47.389 98.6737 47.7343 99.1745 47.8494C99.5338 47.9331 99.8821 47.9122 100.231 47.839C100.971 47.682 101.57 47.0752 101.668 46.3846C101.755 45.7987 101.733 45.7778 101.134 45.7987C101.058 45.8092 100.982 45.8091 100.873 45.8091Z" fill="#F48C06"/>
<path d="M122.54 47.6132C122.872 46.7003 123.204 45.81 123.535 44.9084C123.856 44.0406 124.177 43.1728 124.486 42.3051C124.564 42.1022 124.652 41.9895 124.885 42.0008C125.238 42.0233 125.603 42.0008 125.946 42.0008C126.057 42.136 125.968 42.2262 125.935 42.3163C124.697 45.4268 123.447 48.5373 122.22 51.6478C122.12 51.907 121.998 52.0197 121.711 51.9972C121.368 51.9746 121.025 51.9859 120.694 51.9859C120.605 51.8056 120.705 51.6929 120.749 51.5802C121.025 50.9153 121.313 50.2504 121.611 49.608C121.733 49.3488 121.744 49.1346 121.634 48.8642C120.782 46.7341 119.953 44.6041 119.112 42.4741C118.924 42.0008 118.935 42.0008 119.433 42.0008C119.654 42.0008 119.864 42.0008 120.085 42.0008C120.439 42.0008 120.439 42.0008 120.572 42.3614C121.169 44.0068 121.766 45.6522 122.352 47.2976C122.397 47.3878 122.419 47.4892 122.54 47.6132Z" fill="#F48C06"/>
<path d="M105.35 42.9289C105.949 42.3423 106.604 42.0224 107.403 42.0011C108.734 41.9691 109.643 42.6623 109.91 43.9101C109.965 44.1873 110.009 44.454 109.998 44.7419C109.998 46.0217 109.998 47.3121 109.998 48.5919C109.998 48.9545 109.998 48.9652 109.621 48.9652C109.488 48.9652 109.355 48.9652 109.233 48.9652C108.656 48.9652 108.712 49.0078 108.712 48.4853C108.712 47.3548 108.712 46.2243 108.712 45.0939C108.712 44.9019 108.712 44.7099 108.678 44.5073C108.545 43.6968 108.19 43.2808 107.569 43.1742C106.759 43.0355 106.016 43.3555 105.628 43.9847C105.406 44.3473 105.317 44.7313 105.328 45.1472C105.328 46.2883 105.328 47.4294 105.328 48.5812C105.328 48.9652 105.328 48.9652 104.918 48.9652C104.64 48.9652 104.297 49.0718 104.119 48.9119C103.908 48.7306 104.041 48.3893 104.041 48.112C104.03 46.2883 104.041 44.454 104.041 42.6303C104.041 42.5343 104.041 42.4383 104.041 42.3423C104.03 42.1824 104.108 42.1077 104.274 42.1184C104.33 42.1184 104.385 42.1184 104.452 42.1184C104.729 42.1397 105.051 42.0224 105.262 42.1717C105.428 42.3103 105.251 42.6303 105.35 42.9289Z" fill="#F48C06"/>
<path d="M111 45.4655C111 44.4398 111.29 43.5292 112.031 42.807C113.193 41.6872 115.246 41.7395 116.317 42.9222C116.608 43.2466 116.808 43.6339 116.948 44.0525C117.038 44.3247 117.018 44.3561 116.758 44.3979C116.568 44.4293 116.367 44.4607 116.177 44.4817C115.807 44.5235 115.827 44.513 115.706 44.2095C115.596 43.9374 115.446 43.7071 115.226 43.5188C114.455 42.8698 113.263 43.0373 112.672 43.8746C112.061 44.7328 112.041 46.1877 112.632 47.0564C113.043 47.6529 113.614 47.9146 114.305 47.8518C114.975 47.789 115.446 47.4122 115.716 46.7633C115.847 46.4493 115.847 46.4598 116.177 46.5121C116.347 46.5435 116.518 46.554 116.688 46.5854C117.048 46.6482 117.048 46.6586 116.928 46.9936C116.588 47.9565 115.957 48.6054 115.005 48.8775C113.684 49.2543 112.292 48.7414 111.561 47.6215C111.18 47.0145 111 46.3237 111 45.4655Z" fill="#F48C06"/>
<path d="M131.99 6C130.407 6 129.01 4.60328 129 3.01967C129 1.42623 130.416 0 132 0C133.574 0 135.01 1.46557 135 3.03934C134.98 4.61311 133.564 6 131.99 6ZM131.98 5.61639C133.367 5.62623 134.597 4.39672 134.607 3.01967C134.616 1.63279 133.397 0.403279 132.01 0.393443C130.633 0.383607 129.384 1.61311 129.384 2.99016C129.374 4.37705 130.603 5.61639 131.98 5.61639Z" fill="#F48C06"/>
</g>
<defs>
<clipPath id="clip0_217_3604">
<rect width="135" height="52" fill="white"/>
</clipPath>
</defs>
</svg>
